<?xml version="1.0" encoding="iso-8859-1"?>
<!-- Generator: Adobe Illustrator 19.0.0, SVG Export Plug-In . SVG Version: 6.00 Build 0)  -->
<svg xmlns="http://www.w3.org/2000/svg" xmlns:xlink="http://www.w3.org/1999/xlink" version="1.1" id="Layer_1" x="0px" y="0px" viewBox="0 0 512 512" style="enable-background:new 0 0 512 512;" xml:space="preserve" width="512px" height="512px">
<g>
	<g>
		<path d="M189.217,267.13h-66.783c-9.228,0-16.696,7.467-16.696,16.696v178.087c0,27.619,22.468,50.087,50.087,50.087    c27.619,0,50.087-22.468,50.087-50.087V283.826C205.913,274.598,198.446,267.13,189.217,267.13z" fill="#FFFFFF"/>
	</g>
</g>
<g>
	<g>
		<path d="M155.826,0c-46.043,0-83.478,37.435-83.478,83.478v33.391c0,40.327,28.718,74.047,66.783,81.8v35.07h33.391v-35.07    c38.065-7.752,66.783-41.473,66.783-81.8V83.478C239.304,37.435,201.869,0,155.826,0z" fill="#FFFFFF"/>
	</g>
</g>
<g>
	<g>
		<path d="M389.565,267.13h-66.783c-9.228,0-16.696,7.467-16.696,16.696v178.087c0,27.619,22.468,50.087,50.087,50.087    c27.619,0,50.087-22.468,50.087-50.087V283.826C406.261,274.598,398.793,267.13,389.565,267.13z" fill="#FFFFFF"/>
	</g>
</g>
<g>
	<g>
		<path d="M422.957,0c-9.228,0-16.696,7.467-16.696,16.696V116.87c0,9.22-7.475,16.696-16.696,16.696    c-9.22,0-16.696-7.475-16.696-16.696V16.696C372.87,7.467,365.402,0,356.174,0c-9.228,0-16.696,7.467-16.696,16.696V116.87    c0,9.22-7.475,16.696-16.696,16.696s-16.696-7.475-16.696-16.696V16.696C306.087,7.467,298.62,0,289.391,0    s-16.696,7.467-16.696,16.696V116.87c0,40.327,28.718,74.047,66.783,81.8v35.07h33.391v-35.07    c38.065-7.752,66.783-41.473,66.783-81.8V16.696C439.652,7.467,432.185,0,422.957,0z" fill="#FFFFFF"/>
	</g>
</g>
<g>
</g>
<g>
</g>
<g>
</g>
<g>
</g>
<g>
</g>
<g>
</g>
<g>
</g>
<g>
</g>
<g>
</g>
<g>
</g>
<g>
</g>
<g>
</g>
<g>
</g>
<g>
</g>
<g>
</g>
</svg>
